<?xml version="1.0" encoding="UTF-8"?>
<svg xmlns="http://www.w3.org/2000/svg" xmlns:xlink="http://www.w3.org/1999/xlink" width="800px" height="800px" viewBox="0 0 400 400" version="1.1">
<g id="surface1">
<path style=" stroke:none;fill-rule:nonzero;fill:rgb(40.784314%,40.784314%,43.137255%);fill-opacity:1;" d="M 153.605469 248.765625 C 138.71875 239.175781 118.519531 237.496094 85.945312 246.53125 C 51.214844 254.695312 39.636719 259.925781 24.429688 249.421875 C 18.589844 244.265625 16.496094 235.957031 18.058594 223.992188 C 21.6875 204.488281 31.488281 185.71875 48.902344 164.894531 C 58.621094 154.066406 67.636719 144.769531 79.542969 141.039062 C 88.664062 138.695312 87.8125 145.867188 86.707031 146.890625 C 85.542969 146.890625 83.585938 147.074219 82.074219 148.0625 C 80.847656 149.015625 77.476562 152.089844 77.296875 156.222656 C 77.035156 162.554688 83.585938 161.234375 86.410156 157.761719 C 89.457031 153.84375 93.957031 146.34375 90.417969 139.355469 C 88.933594 136.867188 86.367188 135.148438 83.183594 134.5625 C 72.285156 133.9375 62.132812 139.132812 52.761719 144.878906 C 32.273438 159.113281 15.878906 178.839844 6.605469 200.429688 C 1.257812 213.453125 -3.578125 232.113281 3.671875 247.300781 C 9.277344 257.839844 20.921875 263.4375 34.808594 262.265625 C 44.550781 261.242188 56.332031 258.09375 64.253906 256.195312 C 72.175781 254.289062 112.730469 240.347656 126.054688 264.613281 C 126.054688 264.613281 130.484375 256.011719 141.558594 255.828125 C 150.664062 254.988281 163.796875 258.460938 173.363281 265.488281 C 170.175781 260.695312 161.140625 253.632812 153.605469 248.765625 Z M 153.605469 248.765625 "/>
<path style=" stroke:none;fill-rule:nonzero;fill:rgb(40.784314%,40.784314%,43.137255%);fill-opacity:1;" d="M 90.078125 167.347656 C 82.496094 162.371094 67.25 171.886719 55.039062 188.203125 C 43.875 202.84375 39.050781 219.855469 44.300781 227.722656 C 52.105469 236.980469 66.59375 223.515625 72.757812 216.308594 L 73.550781 215.464844 C 77.742188 210.964844 80.980469 205.550781 84.113281 200.351562 C 84.113281 200.351562 86.992188 195.59375 87.132812 195.375 C 88.910156 195.046875 91.054688 194.535156 93.472656 193.839844 C 93.4375 193.949219 84.226562 209.425781 85.167969 217.109375 C 85.460938 219.453125 85.238281 228.015625 93.597656 230.613281 C 104.738281 232.480469 113.636719 223.84375 121.484375 216.160156 C 121.484375 216.160156 122.820312 214.878906 123.578125 214.148438 C 123.386719 214.914062 123.136719 215.9375 123.136719 215.9375 C 119.875 227.28125 124.273438 229.664062 127.023438 230.539062 C 135.335938 232.957031 145.265625 220.882812 145.296875 220.882812 C 145.039062 224.683594 144.289062 227.832031 148.296875 230.359375 C 152.082031 231.710938 155.914062 229.648438 158.824219 227.707031 C 169.3125 220.316406 177.761719 208.746094 184.585938 198.746094 L 180.230469 198.746094 C 180.179688 198.746094 169.492188 214.242188 162.550781 217.609375 C 162.539062 217.609375 161.273438 218.257812 160.546875 217.746094 C 159.644531 216.976562 160 215.378906 160.558594 214.246094 C 160.59375 214.171875 187.359375 167.746094 187.359375 167.746094 L 174.722656 167.746094 C 174.722656 167.746094 173.339844 169.980469 173.230469 170.128906 C 173.144531 170.054688 172.941406 169.671875 172.800781 169.488281 C 164.972656 158.65625 147.238281 175.316406 133.890625 194.636719 C 128.75 202.066406 122.207031 210.429688 115.421875 216.464844 C 115.421875 216.464844 105.371094 225.679688 101.074219 219.058594 C 99.507812 216.277344 99.988281 212.210938 100.875 209.542969 C 105.875 195.308594 114.492188 182.386719 124.296875 174.59375 C 127.066406 172.4375 130.074219 171.8125 131.566406 172.726562 C 132.988281 173.570312 133.21875 175.65625 132.320312 177.082031 C 130.035156 177.007812 128.203125 177.703125 126.71875 179.238281 C 123.789062 182.3125 122.769531 185.277344 123.703125 188.058594 C 128.226562 194.5 137.253906 181.765625 136.816406 174.007812 C 136.660156 171.226562 135.175781 168.59375 132.960938 167.308594 C 129.660156 165.335938 124.625 165.847656 121.367188 167.421875 C 117.003906 169.066406 110.101562 174.8125 106.070312 179.277344 C 100.996094 184.875 92.292969 191.097656 89.574219 190.398438 C 90.460938 188.019531 97.8125 172.980469 90.078125 167.347656 Z M 151.011719 189.59375 C 153.46875 186.191406 160.625 177.082031 162.367188 175.542969 C 168.234375 170.382812 170.582031 172.652344 170.785156 174.261719 C 165.308594 184.070312 158.847656 195.304688 152.769531 205.402344 C 152.78125 205.367188 150.867188 208.292969 150.867188 208.292969 C 148.183594 212.390625 145.484375 215.90625 141.074219 218.355469 C 140.445312 218.539062 139.410156 218.613281 138.722656 218.097656 C 137.890625 217.550781 137.5625 216.636719 137.65625 215.683594 C 137.921875 212.539062 141.125 202.914062 151.011719 189.59375 Z M 82.257812 195.488281 C 82.257812 195.488281 82.148438 195.816406 82.09375 195.925781 C 82.078125 195.925781 76.582031 204.890625 76.582031 204.890625 C 73.265625 209.316406 69.125 214.882812 63.949219 217.550781 C 62.414062 218.0625 60.292969 218.394531 59.210938 217.039062 C 56.917969 214.296875 58.101562 210.488281 59.058594 207.417969 L 59.398438 206.320312 C 62.152344 198.855469 66.515625 192.265625 70.765625 186.15625 C 70.816406 186.121094 70.9375 186.082031 70.980469 186.082031 C 70.988281 186.121094 71.007812 186.121094 71.011719 186.191406 C 73.679688 191.316406 78.679688 193.691406 82.417969 194.792969 C 82.441406 194.792969 82.464844 194.828125 82.464844 194.902344 C 82.464844 195.011719 82.402344 195.160156 82.257812 195.488281 Z M 87.464844 184.914062 C 87.441406 184.984375 85.015625 190.546875 85.015625 190.546875 C 84.667969 190.839844 84.113281 190.695312 83.476562 190.546875 L 82.390625 190.363281 C 78.972656 189.304688 76.394531 187.035156 75.601562 184.328125 C 74.507812 179.058594 79.007812 174.921875 80.992188 173.421875 C 82.894531 172.105469 85.851562 171.410156 87.570312 172.761719 C 88.628906 174.007812 89.03125 175.617188 89.03125 177.375 C 89.03125 179.753906 88.296875 182.421875 87.464844 184.914062 Z M 247.234375 201.890625 C 246.015625 199.257812 243.125 197.574219 240.039062 197.753906 C 230.027344 198.671875 220.238281 206.902344 215.09375 218.722656 C 212.398438 224.796875 210.925781 229.808594 209.957031 237.785156 C 213.070312 234.203125 219.421875 228.308594 226.628906 225.089844 C 226.628906 225.089844 227.609375 217.441406 232.609375 210.636719 C 234.5 207.816406 238.285156 203.28125 242.539062 204.488281 C 246.253906 205.730469 244.945312 216.015625 240.011719 225.964844 C 236.355469 233.285156 230.765625 240.605469 225.109375 245.65625 C 220.109375 249.898438 212.710938 255.023438 206.238281 251.070312 C 202.160156 248.65625 200.082031 243.605469 200.523438 237.09375 C 202.46875 218.613281 210.882812 202.878906 222.917969 184.949219 C 235.332031 168.300781 249.011719 151.210938 267.445312 142.097656 C 271.203125 140.195312 274.683594 139.757812 277.695312 140.925781 C 277.695312 140.925781 260.394531 150.441406 252.144531 168.042969 C 250.046875 172.507812 247.128906 178.542969 250.066406 183.886719 C 251.601562 186.667969 254.328125 186.886719 256.523438 186.742188 C 266.632812 184.398438 273.164062 174.957031 278.503906 166.324219 C 281.597656 159.773438 284.347656 153.257812 284.347656 146.011719 C 284.347656 145.136719 284.300781 143.964844 284.226562 143.085938 C 289.054688 140.527344 298.960938 145.0625 298.960938 145.0625 C 306.699219 147.625 323.179688 160.25 328.738281 162.664062 C 331.449219 159.515625 335.90625 154.761719 338.414062 152.382812 L 334.785156 150.148438 C 328.96875 146.597656 322.820312 143.234375 316.773438 139.902344 C 303.03125 132.402344 291.847656 135.035156 286.15625 137.085938 C 283.921875 137.890625 281.875 138.585938 281.875 138.585938 C 277.652344 133.976562 270.722656 134.414062 265.621094 135.660156 C 247.261719 140.925781 230.21875 153.769531 211.945312 176.054688 C 198.511719 193.511719 190.179688 208.589844 185.738281 223.480469 C 182.316406 233.507812 181.273438 248.253906 189.628906 257 C 196.734375 264.425781 206.15625 262.816406 212.808594 260.148438 C 227.222656 253.046875 240.175781 237.75 246.628906 220.148438 C 248.1875 214.917969 249.917969 207.527344 247.234375 201.890625 Z M 280.378906 146.746094 C 278.46875 168.628906 261.460938 181.472656 257.253906 182.496094 C 254.703125 183.007812 250.347656 181.875 254.234375 172.691406 C 259.957031 160.320312 269.722656 149.820312 280.203125 144.441406 C 280.460938 145.355469 280.453125 145.941406 280.378906 146.746094 Z M 381.277344 149.527344 C 372.128906 154.722656 362.644531 158.089844 351.160156 156.917969 C 347.980469 160.503906 344.882812 164.199219 342.027344 168.003906 C 358.140625 172.105469 375.222656 162.992188 384.753906 154.320312 C 394.832031 145.574219 400 134.5625 400 134.5625 C 400 134.5625 392.445312 143.195312 381.277344 149.527344 Z M 208.363281 167.75 L 196.363281 167.75 L 189.59375 178.75 L 201.59375 178.75 Z M 208.363281 167.75 "/>
<path style=" stroke:none;fill-rule:nonzero;fill:rgb(40.784314%,40.784314%,43.137255%);fill-opacity:1;" d="M 351.113281 249.785156 C 349.824219 250.660156 348.011719 249.988281 348.6875 247.972656 C 350.378906 242.851562 357.089844 232.410156 357.089844 232.410156 L 375.789062 199.25 L 362.980469 199.25 C 362.371094 200.25 361.070312 202.542969 361.070312 202.542969 C 360.476562 201.558594 358.707031 199.363281 357.976562 198.886719 C 354.847656 196.910156 350.257812 197.847656 347.089844 199.636719 C 333.320312 207.691406 323.273438 223.597656 315.351562 236.003906 C 315.351562 236.003906 307.007812 249.792969 302.378906 250.820312 C 298.765625 251.113281 299.136719 246.242188 299.296875 245.109375 C 300.691406 236.910156 303.9375 229.117188 307.207031 222.054688 C 313.859375 217.445312 321.449219 211.40625 328.34375 204.78125 C 343.316406 190.472656 355.933594 174.261719 357.777344 170.640625 C 357.777344 170.640625 355.78125 171.042969 353.425781 171.117188 C 341.910156 187.179688 318.34375 210.527344 311.199219 214.003906 C 314.363281 206.390625 334.8125 170.054688 352.214844 152.675781 L 354.953125 150.039062 C 359.1875 145.902344 363.574219 141.660156 366.992188 140.964844 C 367.351562 140.925781 367.816406 140.964844 368.21875 141.804688 C 368.371094 145.027344 367.171875 147.40625 365.796875 150.113281 L 363.871094 154.066406 C 363.871094 154.066406 366.601562 153.550781 368.394531 152.964844 C 370.472656 149.050781 372.777344 144.660156 371.929688 139.429688 C 371.644531 137.746094 370.425781 136.464844 368.832031 136.171875 C 363.640625 135.183594 357.984375 139.023438 353.433594 142.136719 L 353.25 142.246094 C 329.847656 160.578125 310.089844 186.996094 292.8125 223.078125 C 291.5625 224.027344 286.722656 225.164062 285.902344 224.613281 C 287.609375 221.101562 289.753906 216.378906 290.828125 211.257812 C 291.015625 209.792969 291.1875 208.292969 291.1875 206.832031 C 291.1875 203.679688 290.433594 200.71875 287.613281 198.671875 C 284.304688 197.023438 280.214844 197.792969 277.457031 199.035156 C 265.109375 204.15625 255.878906 216.820312 249.21875 227.246094 C 245.636719 233.871094 242.066406 240.96875 241.078125 249.09375 C 240.382812 255.460938 241.800781 259.558594 245.417969 261.609375 C 249.140625 263.507812 253.824219 261.53125 255.667969 260.582031 C 268.175781 253.996094 276.917969 240.785156 283.808594 228.710938 C 284.082031 228.675781 287.84375 228.566406 290.691406 227.832031 C 290.726562 227.832031 290.742188 227.832031 290.808594 227.871094 C 290.644531 228.417969 289.171875 232.808594 289.171875 232.808594 C 284.804688 245.617188 282.785156 254.324219 286.910156 259.484375 C 292.804688 266.765625 302.566406 259.230469 310.503906 249.273438 C 308.800781 261.203125 314.980469 263.070312 319.695312 262.15625 C 325.109375 260.695312 331.140625 254.910156 333.941406 251.949219 C 333.042969 255.421875 333.285156 261.644531 338.210938 262.265625 C 341.585938 262.890625 344.113281 261.054688 347.035156 259.480469 C 357.519531 253.769531 370.070312 234.746094 373.328125 229.246094 L 369.054688 229.246094 C 364.421875 236.25 358.527344 245.425781 351.113281 249.785156 Z M 257.003906 248.507812 C 256.339844 247.519531 256.121094 246.441406 256.097656 245.273438 C 255.96875 238.097656 263.691406 225.25 269.136719 218.25 L 269.148438 218.25 C 271.433594 223.25 276.605469 226.460938 279.726562 227.816406 C 275.847656 236.453125 262.550781 254.949219 257.003906 248.507812 Z M 281.914062 223.957031 C 281.546875 224.214844 275.023438 222.015625 273.765625 215.980469 C 272.695312 210.78125 276.273438 206.71875 279.738281 204.671875 C 281.222656 203.5 283.464844 203.101562 285.105469 203.683594 C 286.628906 204.710938 287.042969 206.539062 287.042969 208.511719 C 287.042969 209.722656 286.882812 210.964844 286.742188 212.101562 L 286.710938 212.355469 C 285.617188 216.414062 284.007812 220.3125 281.914062 223.957031 Z M 334.210938 246.203125 C 334.207031 246.203125 332.976562 247.300781 332.976562 247.300781 C 331.214844 248.875 329.40625 250.558594 327.222656 249.714844 C 326.617188 249.496094 326.191406 248.691406 326.089844 248.070312 C 325.992188 243.566406 328.019531 239.398438 329.984375 235.335938 L 330.488281 234.273438 C 336.140625 224.832031 342.714844 213.710938 352.367188 205.988281 C 353.992188 204.816406 355.757812 203.828125 357.621094 204.597656 C 358.050781 205 358.546875 205.695312 358.546875 206.390625 C 358.546875 206.613281 358.351562 207.195312 358.238281 207.378906 C 355.542969 211.734375 352.976562 216.308594 350.480469 220.699219 C 345.601562 229.371094 340.539062 238.335938 334.210938 246.203125 Z M 334.210938 246.203125 "/>
</g>
</svg>
